<mxfile host="app.diagrams.net" agent="Mozilla/5.0 (Windows NT 10.0; Win64; x64) AppleWebKit/537.36 (KHTML, like Gecko) Chrome/140.0.0.0 Safari/537.36" version="28.2.7">
  <diagram name="第 1 页" id="jlnkiJHo9C2PNXA7i4T5">
    <mxGraphModel dx="383" dy="1061" grid="1" gridSize="10" guides="1" tooltips="1" connect="1" arrows="1" fold="1" page="1" pageScale="1" pageWidth="827" pageHeight="1169" math="0" shadow="0">
      <root>
        <mxCell id="0" />
        <mxCell id="1" parent="0" />
        <mxCell id="Ac0VnQFcxFspVbU45yQU-1" value="应用控制层(Application)" style="html=1;verticalAlign=top;fillColor=#dae8fc;strokeColor=#6c8ebf;fontSize=16;fontStyle=1" vertex="1" parent="1">
          <mxGeometry x="1920" y="930" width="630" height="90" as="geometry" />
        </mxCell>
        <mxCell id="Ac0VnQFcxFspVbU45yQU-2" value="业务逻辑层(Bussiness)" style="html=1;verticalAlign=top;fillColor=#ffe6cc;strokeColor=#d79b00;fontSize=16;fontStyle=1" vertex="1" parent="1">
          <mxGeometry x="1920" y="1020" width="630" height="270" as="geometry" />
        </mxCell>
        <mxCell id="Ac0VnQFcxFspVbU45yQU-3" value="领域设施层(Domain)" style="html=1;verticalAlign=top;fillColor=#fff2cc;strokeColor=#d6b656;fontSize=16;fontStyle=1" vertex="1" parent="1">
          <mxGeometry x="1920" y="1290" width="630" height="90" as="geometry" />
        </mxCell>
        <mxCell id="Ac0VnQFcxFspVbU45yQU-4" value="第三方工具(Third)" style="html=1;verticalAlign=top;fillColor=#f5f5f5;strokeColor=#666666;fontSize=16;fontStyle=1;fontColor=#333333;" vertex="1" parent="1">
          <mxGeometry x="1920" y="1470" width="630" height="90" as="geometry" />
        </mxCell>
        <mxCell id="Ac0VnQFcxFspVbU45yQU-5" value="&lt;font style=&quot;font-size: 12px;&quot;&gt;«Component»&lt;/font&gt;&lt;br style=&quot;font-size: 14px;&quot;&gt;&lt;b&gt;Fstapi&lt;/b&gt;" style="html=1;dropTarget=0;fontSize=14;fillColor=#CCCCCC;strokeColor=#36393d;gradientColor=#FFFFFF;gradientDirection=east;" vertex="1" parent="1">
          <mxGeometry x="2410" y="1500" width="110" height="50" as="geometry" />
        </mxCell>
        <mxCell id="Ac0VnQFcxFspVbU45yQU-6" value="" style="shape=module;jettyWidth=8;jettyHeight=4;fontSize=14;fillColor=#CCCCCC;strokeColor=#36393d;gradientColor=#FFFFFF;gradientDirection=east;" vertex="1" parent="Ac0VnQFcxFspVbU45yQU-5">
          <mxGeometry x="1" width="20" height="20" relative="1" as="geometry">
            <mxPoint x="-27" y="7" as="offset" />
          </mxGeometry>
        </mxCell>
        <mxCell id="Ac0VnQFcxFspVbU45yQU-7" value="&lt;font style=&quot;font-size: 12px;&quot;&gt;«Module»&lt;br style=&quot;&quot;&gt;&lt;/font&gt;&lt;b&gt;仿真引擎&lt;/b&gt;" style="html=1;dropTarget=0;fontSize=14;fillColor=#E6D0DE;strokeColor=#36393d;gradientColor=#FFFFFF;gradientDirection=east;" vertex="1" parent="1">
          <mxGeometry x="2295" y="1317" width="110" height="50" as="geometry" />
        </mxCell>
        <mxCell id="Ac0VnQFcxFspVbU45yQU-8" value="" style="shape=module;jettyWidth=8;jettyHeight=4;fontSize=14;fillColor=#E6D0DE;strokeColor=#36393d;gradientColor=#FFFFFF;gradientDirection=east;" vertex="1" parent="Ac0VnQFcxFspVbU45yQU-7">
          <mxGeometry x="1" width="20" height="20" relative="1" as="geometry">
            <mxPoint x="-27" y="7" as="offset" />
          </mxGeometry>
        </mxCell>
        <mxCell id="Ac0VnQFcxFspVbU45yQU-9" value="中端" style="swimlane;fontSize=14;dashed=1;fillColor=#fad7ac;strokeColor=#b46504;" vertex="1" parent="1">
          <mxGeometry x="2100" y="1050" width="270" height="230" as="geometry" />
        </mxCell>
        <mxCell id="Ac0VnQFcxFspVbU45yQU-10" value="&lt;font style=&quot;font-size: 12px;&quot;&gt;«Service»&lt;/font&gt;&lt;br style=&quot;font-size: 14px;&quot;&gt;&lt;b&gt;网表分割&lt;/b&gt;" style="html=1;dropTarget=0;fontSize=14;fillColor=#FFCCFF;strokeColor=#36393d;gradientColor=#FFFFFF;gradientDirection=east;" vertex="1" parent="Ac0VnQFcxFspVbU45yQU-9">
          <mxGeometry x="140" y="40" width="110" height="50" as="geometry" />
        </mxCell>
        <mxCell id="Ac0VnQFcxFspVbU45yQU-11" value="" style="shape=module;jettyWidth=8;jettyHeight=4;fontSize=14;fillColor=#FFCCFF;strokeColor=#36393d;gradientColor=#FFFFFF;gradientDirection=east;" vertex="1" parent="Ac0VnQFcxFspVbU45yQU-10">
          <mxGeometry x="1" width="20" height="20" relative="1" as="geometry">
            <mxPoint x="-27" y="7" as="offset" />
          </mxGeometry>
        </mxCell>
        <mxCell id="Ac0VnQFcxFspVbU45yQU-12" value="&lt;font style=&quot;font-size: 12px;&quot;&gt;«Module»&lt;/font&gt;&lt;br style=&quot;font-size: 14px;&quot;&gt;&lt;b&gt;分区布局&lt;/b&gt;" style="html=1;dropTarget=0;fontSize=14;fillColor=#ffcccc;strokeColor=#36393d;gradientColor=#FFFFFF;gradientDirection=east;" vertex="1" parent="Ac0VnQFcxFspVbU45yQU-9">
          <mxGeometry x="10" y="100" width="110" height="50" as="geometry" />
        </mxCell>
        <mxCell id="Ac0VnQFcxFspVbU45yQU-13" value="" style="shape=module;jettyWidth=8;jettyHeight=4;fontSize=14;fillColor=#ffcccc;strokeColor=#36393d;gradientColor=#FFFFFF;gradientDirection=east;" vertex="1" parent="Ac0VnQFcxFspVbU45yQU-12">
          <mxGeometry x="1" width="20" height="20" relative="1" as="geometry">
            <mxPoint x="-27" y="7" as="offset" />
          </mxGeometry>
        </mxCell>
        <mxCell id="Ac0VnQFcxFspVbU45yQU-14" value="&lt;font style=&quot;font-size: 12px;&quot;&gt;«Module»&lt;/font&gt;&lt;br style=&quot;font-size: 14px;&quot;&gt;&lt;b&gt;调度&lt;/b&gt;" style="html=1;dropTarget=0;fontSize=14;fillColor=#ffcccc;strokeColor=#36393d;gradientColor=#FFFFFF;gradientDirection=east;" vertex="1" parent="Ac0VnQFcxFspVbU45yQU-9">
          <mxGeometry x="140" y="100" width="110" height="50" as="geometry" />
        </mxCell>
        <mxCell id="Ac0VnQFcxFspVbU45yQU-15" value="" style="shape=module;jettyWidth=8;jettyHeight=4;fontSize=14;fillColor=#ffcccc;strokeColor=#36393d;gradientColor=#FFFFFF;gradientDirection=east;" vertex="1" parent="Ac0VnQFcxFspVbU45yQU-14">
          <mxGeometry x="1" width="20" height="20" relative="1" as="geometry">
            <mxPoint x="-27" y="7" as="offset" />
          </mxGeometry>
        </mxCell>
        <mxCell id="Ac0VnQFcxFspVbU45yQU-16" value="&lt;font style=&quot;font-size: 12px;&quot;&gt;«Module»&lt;/font&gt;&lt;br style=&quot;font-size: 14px;&quot;&gt;&lt;b&gt;路由&lt;/b&gt;&lt;b&gt;布线&lt;/b&gt;" style="html=1;dropTarget=0;fontSize=14;fillColor=#ffcccc;strokeColor=#36393d;gradientColor=#FFFFFF;gradientDirection=east;" vertex="1" parent="Ac0VnQFcxFspVbU45yQU-9">
          <mxGeometry x="10" y="160" width="110" height="50" as="geometry" />
        </mxCell>
        <mxCell id="Ac0VnQFcxFspVbU45yQU-17" value="" style="shape=module;jettyWidth=8;jettyHeight=4;fontSize=14;fillColor=#ffcccc;strokeColor=#36393d;gradientColor=#FFFFFF;gradientDirection=east;" vertex="1" parent="Ac0VnQFcxFspVbU45yQU-16">
          <mxGeometry x="1" width="20" height="20" relative="1" as="geometry">
            <mxPoint x="-27" y="7" as="offset" />
          </mxGeometry>
        </mxCell>
        <mxCell id="Ac0VnQFcxFspVbU45yQU-18" value="&lt;font style=&quot;font-size: 12px;&quot;&gt;«Module»&lt;/font&gt;&lt;br style=&quot;font-size: 14px;&quot;&gt;&lt;b&gt;网表优化&lt;/b&gt;" style="html=1;dropTarget=0;fontSize=14;fillColor=#ffcccc;strokeColor=#36393d;gradientColor=#FFFFFF;gradientDirection=east;" vertex="1" parent="Ac0VnQFcxFspVbU45yQU-9">
          <mxGeometry x="10" y="40" width="110" height="50" as="geometry" />
        </mxCell>
        <mxCell id="Ac0VnQFcxFspVbU45yQU-19" value="" style="shape=module;jettyWidth=8;jettyHeight=4;fontSize=14;fillColor=#ffcccc;strokeColor=#36393d;gradientColor=#FFFFFF;gradientDirection=east;" vertex="1" parent="Ac0VnQFcxFspVbU45yQU-18">
          <mxGeometry x="1" width="20" height="20" relative="1" as="geometry">
            <mxPoint x="-27" y="7" as="offset" />
          </mxGeometry>
        </mxCell>
        <mxCell id="Ac0VnQFcxFspVbU45yQU-20" value="后端" style="swimlane;fontSize=14;dashed=1;fillColor=#fad7ac;strokeColor=#b46504;" vertex="1" parent="1">
          <mxGeometry x="2390" y="1050" width="140" height="230" as="geometry" />
        </mxCell>
        <mxCell id="Ac0VnQFcxFspVbU45yQU-21" value="&lt;font style=&quot;font-size: 12px;&quot;&gt;«Module»&lt;/font&gt;&lt;br style=&quot;font-size: 14px;&quot;&gt;&lt;b&gt;指令生成&lt;/b&gt;" style="html=1;dropTarget=0;fontSize=14;fillColor=#ffcccc;strokeColor=#36393d;gradientColor=#FFFFFF;gradientDirection=east;" vertex="1" parent="Ac0VnQFcxFspVbU45yQU-20">
          <mxGeometry x="15" y="40" width="110" height="50" as="geometry" />
        </mxCell>
        <mxCell id="Ac0VnQFcxFspVbU45yQU-22" value="" style="shape=module;jettyWidth=8;jettyHeight=4;fontSize=14;fillColor=#ffcccc;strokeColor=#36393d;gradientColor=#FFFFFF;gradientDirection=east;" vertex="1" parent="Ac0VnQFcxFspVbU45yQU-21">
          <mxGeometry x="1" width="20" height="20" relative="1" as="geometry">
            <mxPoint x="-27" y="7" as="offset" />
          </mxGeometry>
        </mxCell>
        <mxCell id="Ac0VnQFcxFspVbU45yQU-23" value="&lt;font style=&quot;font-size: 12px;&quot;&gt;«Module»&lt;/font&gt;&lt;br style=&quot;font-size: 14px;&quot;&gt;&lt;b&gt;信号导出&lt;/b&gt;" style="html=1;dropTarget=0;fontSize=14;fillColor=#ffcccc;strokeColor=#36393d;gradientColor=#FFFFFF;gradientDirection=east;" vertex="1" parent="Ac0VnQFcxFspVbU45yQU-20">
          <mxGeometry x="15" y="98.5" width="110" height="50" as="geometry" />
        </mxCell>
        <mxCell id="Ac0VnQFcxFspVbU45yQU-24" value="" style="shape=module;jettyWidth=8;jettyHeight=4;fontSize=14;fillColor=#ffcccc;strokeColor=#36393d;gradientColor=#FFFFFF;gradientDirection=east;" vertex="1" parent="Ac0VnQFcxFspVbU45yQU-23">
          <mxGeometry x="1" width="20" height="20" relative="1" as="geometry">
            <mxPoint x="-27" y="7" as="offset" />
          </mxGeometry>
        </mxCell>
        <mxCell id="Ac0VnQFcxFspVbU45yQU-25" value="&lt;font style=&quot;font-size: 12px;&quot;&gt;«Module»&lt;/font&gt;&lt;br style=&quot;font-size: 14px;&quot;&gt;&lt;b&gt;顶层互连&lt;/b&gt;" style="html=1;dropTarget=0;fontSize=14;fillColor=#ffcccc;strokeColor=#36393d;gradientColor=#FFFFFF;gradientDirection=east;" vertex="1" parent="Ac0VnQFcxFspVbU45yQU-20">
          <mxGeometry x="15" y="160" width="110" height="50" as="geometry" />
        </mxCell>
        <mxCell id="Ac0VnQFcxFspVbU45yQU-26" value="" style="shape=module;jettyWidth=8;jettyHeight=4;fontSize=14;fillColor=#ffcccc;strokeColor=#36393d;gradientColor=#FFFFFF;gradientDirection=east;" vertex="1" parent="Ac0VnQFcxFspVbU45yQU-25">
          <mxGeometry x="1" width="20" height="20" relative="1" as="geometry">
            <mxPoint x="-27" y="7" as="offset" />
          </mxGeometry>
        </mxCell>
        <mxCell id="Ac0VnQFcxFspVbU45yQU-27" value="&lt;font style=&quot;font-size: 12px;&quot;&gt;«Component»&lt;/font&gt;&lt;br style=&quot;font-size: 14px;&quot;&gt;&lt;b&gt;TinyXml2&lt;/b&gt;" style="html=1;dropTarget=0;fontSize=14;fillColor=#CCCCCC;strokeColor=#36393d;gradientColor=#FFFFFF;gradientDirection=east;" vertex="1" parent="1">
          <mxGeometry x="2290" y="1500" width="110" height="50" as="geometry" />
        </mxCell>
        <mxCell id="Ac0VnQFcxFspVbU45yQU-28" value="" style="shape=module;jettyWidth=8;jettyHeight=4;fontSize=14;fillColor=#CCCCCC;strokeColor=#36393d;gradientColor=#FFFFFF;gradientDirection=east;" vertex="1" parent="Ac0VnQFcxFspVbU45yQU-27">
          <mxGeometry x="1" width="20" height="20" relative="1" as="geometry">
            <mxPoint x="-27" y="7" as="offset" />
          </mxGeometry>
        </mxCell>
        <mxCell id="Ac0VnQFcxFspVbU45yQU-29" value="&lt;font style=&quot;font-size: 12px;&quot;&gt;«Component»&lt;/font&gt;&lt;br style=&quot;font-size: 14px;&quot;&gt;&lt;b&gt;Kahypar&lt;/b&gt;" style="html=1;dropTarget=0;fontSize=14;fillColor=#CCCCCC;strokeColor=#36393d;gradientColor=#FFFFFF;gradientDirection=east;" vertex="1" parent="1">
          <mxGeometry x="2050" y="1500" width="110" height="50" as="geometry" />
        </mxCell>
        <mxCell id="Ac0VnQFcxFspVbU45yQU-30" value="" style="shape=module;jettyWidth=8;jettyHeight=4;fontSize=14;fillColor=#CCCCCC;strokeColor=#36393d;gradientColor=#FFFFFF;gradientDirection=east;" vertex="1" parent="Ac0VnQFcxFspVbU45yQU-29">
          <mxGeometry x="1" width="20" height="20" relative="1" as="geometry">
            <mxPoint x="-27" y="7" as="offset" />
          </mxGeometry>
        </mxCell>
        <mxCell id="Ac0VnQFcxFspVbU45yQU-31" value="&lt;font style=&quot;font-size: 12px;&quot;&gt;«Component»&lt;/font&gt;&lt;br style=&quot;font-size: 14px;&quot;&gt;&lt;b&gt;Yosys&lt;/b&gt;" style="html=1;dropTarget=0;fontSize=14;fillColor=#CCCCCC;strokeColor=#36393d;gradientColor=#FFFFFF;gradientDirection=east;" vertex="1" parent="1">
          <mxGeometry x="1930" y="1500" width="110" height="50" as="geometry" />
        </mxCell>
        <mxCell id="Ac0VnQFcxFspVbU45yQU-32" value="" style="shape=module;jettyWidth=8;jettyHeight=4;fontSize=14;fillColor=#CCCCCC;strokeColor=#36393d;gradientColor=#FFFFFF;gradientDirection=east;" vertex="1" parent="Ac0VnQFcxFspVbU45yQU-31">
          <mxGeometry x="1" width="20" height="20" relative="1" as="geometry">
            <mxPoint x="-27" y="7" as="offset" />
          </mxGeometry>
        </mxCell>
        <mxCell id="Ac0VnQFcxFspVbU45yQU-33" value="前端" style="swimlane;fontSize=14;dashed=1;fillColor=#fad7ac;strokeColor=#b46504;" vertex="1" parent="1">
          <mxGeometry x="1940" y="1050" width="140" height="230" as="geometry" />
        </mxCell>
        <mxCell id="Ac0VnQFcxFspVbU45yQU-34" value="&lt;font style=&quot;font-size: 12px;&quot;&gt;«Service»&lt;/font&gt;&lt;br style=&quot;font-size: 14px;&quot;&gt;&lt;b&gt;逻辑综合&lt;/b&gt;" style="html=1;dropTarget=0;fontSize=14;fillColor=#FFCCFF;strokeColor=#36393d;gradientColor=#FFFFFF;gradientDirection=east;" vertex="1" parent="Ac0VnQFcxFspVbU45yQU-33">
          <mxGeometry x="17.5" y="40" width="110" height="50" as="geometry" />
        </mxCell>
        <mxCell id="Ac0VnQFcxFspVbU45yQU-35" value="" style="shape=module;jettyWidth=8;jettyHeight=4;fontSize=14;fillColor=#FFCCFF;strokeColor=#36393d;gradientColor=#FFFFFF;gradientDirection=east;" vertex="1" parent="Ac0VnQFcxFspVbU45yQU-34">
          <mxGeometry x="1" width="20" height="20" relative="1" as="geometry">
            <mxPoint x="-27" y="7" as="offset" />
          </mxGeometry>
        </mxCell>
        <mxCell id="Ac0VnQFcxFspVbU45yQU-36" value="&lt;font style=&quot;font-size: 12px;&quot;&gt;«Module»&lt;/font&gt;&lt;br style=&quot;font-size: 14px;&quot;&gt;&lt;b&gt;网表解析&lt;/b&gt;" style="html=1;dropTarget=0;fontSize=14;fillColor=#ffcccc;strokeColor=#36393d;gradientColor=#FFFFFF;gradientDirection=east;" vertex="1" parent="Ac0VnQFcxFspVbU45yQU-33">
          <mxGeometry x="17.5" y="160" width="110" height="50" as="geometry" />
        </mxCell>
        <mxCell id="Ac0VnQFcxFspVbU45yQU-37" value="" style="shape=module;jettyWidth=8;jettyHeight=4;fontSize=14;fillColor=#ffcccc;strokeColor=#36393d;gradientColor=#FFFFFF;gradientDirection=east;" vertex="1" parent="Ac0VnQFcxFspVbU45yQU-36">
          <mxGeometry x="1" width="20" height="20" relative="1" as="geometry">
            <mxPoint x="-27" y="7" as="offset" />
          </mxGeometry>
        </mxCell>
        <mxCell id="Ac0VnQFcxFspVbU45yQU-38" value="&lt;font style=&quot;font-size: 12px;&quot;&gt;«Module»&lt;/font&gt;&lt;br style=&quot;font-size: 14px;&quot;&gt;&lt;b style=&quot;font-size: 14px;&quot;&gt;网表超图&lt;/b&gt;" style="html=1;dropTarget=0;fontSize=14;fillColor=#E6D0DE;strokeColor=#36393d;gradientColor=#FFFFFF;gradientDirection=east;" vertex="1" parent="1">
          <mxGeometry x="2025" y="1317" width="110" height="50" as="geometry" />
        </mxCell>
        <mxCell id="Ac0VnQFcxFspVbU45yQU-39" value="" style="shape=module;jettyWidth=8;jettyHeight=4;fontSize=14;fillColor=#E6D0DE;strokeColor=#36393d;gradientColor=#FFFFFF;gradientDirection=east;" vertex="1" parent="Ac0VnQFcxFspVbU45yQU-38">
          <mxGeometry x="1" width="20" height="20" relative="1" as="geometry">
            <mxPoint x="-27" y="7" as="offset" />
          </mxGeometry>
        </mxCell>
        <mxCell id="Ac0VnQFcxFspVbU45yQU-40" value="&lt;font style=&quot;font-size: 12px;&quot;&gt;«Module»&lt;/font&gt;&lt;br style=&quot;font-size: 14px;&quot;&gt;&lt;b&gt;配置解析&lt;/b&gt;" style="html=1;dropTarget=0;fontSize=14;fillColor=#ffcccc;strokeColor=#36393d;gradientColor=#FFFFFF;gradientDirection=east;" vertex="1" parent="1">
          <mxGeometry x="1955" y="960" width="110" height="50" as="geometry" />
        </mxCell>
        <mxCell id="Ac0VnQFcxFspVbU45yQU-41" value="" style="shape=module;jettyWidth=8;jettyHeight=4;fontSize=14;fillColor=#ffcccc;strokeColor=#36393d;gradientColor=#FFFFFF;gradientDirection=east;" vertex="1" parent="Ac0VnQFcxFspVbU45yQU-40">
          <mxGeometry x="1" width="20" height="20" relative="1" as="geometry">
            <mxPoint x="-27" y="7" as="offset" />
          </mxGeometry>
        </mxCell>
        <mxCell id="Ac0VnQFcxFspVbU45yQU-42" value="通用支撑层(Support)" style="html=1;verticalAlign=top;fillColor=#d5e8d4;strokeColor=#82b366;fontSize=16;fontStyle=1" vertex="1" parent="1">
          <mxGeometry x="1920" y="1380" width="630" height="90" as="geometry" />
        </mxCell>
        <mxCell id="Ac0VnQFcxFspVbU45yQU-43" value="&lt;font style=&quot;font-size: 12px;&quot;&gt;«FuncUnit»&lt;/font&gt;&lt;br style=&quot;font-size: 14px;&quot;&gt;&lt;b style=&quot;font-size: 14px;&quot;&gt;调试打印&lt;/b&gt;" style="html=1;dropTarget=0;fontSize=14;fillColor=#E6D0DE;strokeColor=#36393d;gradientColor=#FFFFFF;gradientDirection=east;" vertex="1" parent="1">
          <mxGeometry x="1930" y="1410" width="110" height="50" as="geometry" />
        </mxCell>
        <mxCell id="Ac0VnQFcxFspVbU45yQU-44" value="" style="shape=module;jettyWidth=8;jettyHeight=4;fontSize=14;fillColor=#E6D0DE;strokeColor=#36393d;gradientColor=#FFFFFF;gradientDirection=east;" vertex="1" parent="Ac0VnQFcxFspVbU45yQU-43">
          <mxGeometry x="1" width="20" height="20" relative="1" as="geometry">
            <mxPoint x="-27" y="7" as="offset" />
          </mxGeometry>
        </mxCell>
        <mxCell id="Ac0VnQFcxFspVbU45yQU-45" value="&lt;font style=&quot;font-size: 12px;&quot;&gt;«Module»&lt;/font&gt;&lt;br style=&quot;font-size: 14px;&quot;&gt;&lt;b&gt;Digraph&lt;/b&gt;" style="html=1;dropTarget=0;fontSize=14;fillColor=#E6D0DE;strokeColor=#36393d;gradientColor=#FFFFFF;gradientDirection=east;" vertex="1" parent="1">
          <mxGeometry x="2050" y="1410" width="110" height="50" as="geometry" />
        </mxCell>
        <mxCell id="Ac0VnQFcxFspVbU45yQU-46" value="" style="shape=module;jettyWidth=8;jettyHeight=4;fontSize=14;fillColor=#E6D0DE;strokeColor=#36393d;gradientColor=#FFFFFF;gradientDirection=east;" vertex="1" parent="Ac0VnQFcxFspVbU45yQU-45">
          <mxGeometry x="1" width="20" height="20" relative="1" as="geometry">
            <mxPoint x="-27" y="7" as="offset" />
          </mxGeometry>
        </mxCell>
        <mxCell id="Ac0VnQFcxFspVbU45yQU-47" value="&lt;font style=&quot;font-size: 12px;&quot;&gt;«Module»&lt;/font&gt;&lt;br style=&quot;font-size: 14px;&quot;&gt;&lt;b&gt;线程池&lt;/b&gt;" style="html=1;dropTarget=0;fontSize=14;fillColor=#E6D0DE;strokeColor=#36393d;gradientColor=#FFFFFF;gradientDirection=east;" vertex="1" parent="1">
          <mxGeometry x="2170" y="1410" width="110" height="50" as="geometry" />
        </mxCell>
        <mxCell id="Ac0VnQFcxFspVbU45yQU-48" value="" style="shape=module;jettyWidth=8;jettyHeight=4;fontSize=14;fillColor=#E6D0DE;strokeColor=#36393d;gradientColor=#FFFFFF;gradientDirection=east;" vertex="1" parent="Ac0VnQFcxFspVbU45yQU-47">
          <mxGeometry x="1" width="20" height="20" relative="1" as="geometry">
            <mxPoint x="-27" y="7" as="offset" />
          </mxGeometry>
        </mxCell>
        <mxCell id="Ac0VnQFcxFspVbU45yQU-49" value="&lt;font style=&quot;font-size: 12px;&quot;&gt;«FuncUnit»&lt;/font&gt;&lt;br style=&quot;font-size: 14px;&quot;&gt;&lt;b&gt;耗时统计&lt;/b&gt;" style="html=1;dropTarget=0;fontSize=14;fillColor=#E6D0DE;strokeColor=#36393d;gradientColor=#FFFFFF;gradientDirection=east;" vertex="1" parent="1">
          <mxGeometry x="2290" y="1410" width="110" height="50" as="geometry" />
        </mxCell>
        <mxCell id="Ac0VnQFcxFspVbU45yQU-50" value="" style="shape=module;jettyWidth=8;jettyHeight=4;fontSize=14;fillColor=#E6D0DE;strokeColor=#36393d;gradientColor=#FFFFFF;gradientDirection=east;" vertex="1" parent="Ac0VnQFcxFspVbU45yQU-49">
          <mxGeometry x="1" width="20" height="20" relative="1" as="geometry">
            <mxPoint x="-27" y="7" as="offset" />
          </mxGeometry>
        </mxCell>
        <mxCell id="Ac0VnQFcxFspVbU45yQU-51" value="&lt;font style=&quot;font-size: 12px;&quot;&gt;«FuncUnit»&lt;/font&gt;&lt;br style=&quot;font-size: 14px;&quot;&gt;&lt;b&gt;真值表&lt;/b&gt;" style="html=1;dropTarget=0;fontSize=14;fillColor=#E6D0DE;strokeColor=#36393d;gradientColor=#FFFFFF;gradientDirection=east;" vertex="1" parent="1">
          <mxGeometry x="2410" y="1410" width="110" height="50" as="geometry" />
        </mxCell>
        <mxCell id="Ac0VnQFcxFspVbU45yQU-52" value="" style="shape=module;jettyWidth=8;jettyHeight=4;fontSize=14;fillColor=#E6D0DE;strokeColor=#36393d;gradientColor=#FFFFFF;gradientDirection=east;" vertex="1" parent="Ac0VnQFcxFspVbU45yQU-51">
          <mxGeometry x="1" width="20" height="20" relative="1" as="geometry">
            <mxPoint x="-27" y="7" as="offset" />
          </mxGeometry>
        </mxCell>
        <mxCell id="Ac0VnQFcxFspVbU45yQU-53" value="&lt;font style=&quot;font-size: 12px;&quot;&gt;«Module»&lt;/font&gt;&lt;br style=&quot;font-size: 14px;&quot;&gt;&lt;b&gt;流程控制&lt;/b&gt;" style="html=1;dropTarget=0;fontSize=14;fillColor=#ffcccc;strokeColor=#36393d;gradientColor=#FFFFFF;gradientDirection=east;" vertex="1" parent="1">
          <mxGeometry x="2180" y="960" width="110" height="50" as="geometry" />
        </mxCell>
        <mxCell id="Ac0VnQFcxFspVbU45yQU-54" value="" style="shape=module;jettyWidth=8;jettyHeight=4;fontSize=14;fillColor=#ffcccc;strokeColor=#36393d;gradientColor=#FFFFFF;gradientDirection=east;" vertex="1" parent="Ac0VnQFcxFspVbU45yQU-53">
          <mxGeometry x="1" width="20" height="20" relative="1" as="geometry">
            <mxPoint x="-27" y="7" as="offset" />
          </mxGeometry>
        </mxCell>
        <mxCell id="Ac0VnQFcxFspVbU45yQU-55" value="&lt;font style=&quot;font-size: 12px;&quot;&gt;«Module»&lt;/font&gt;&lt;br style=&quot;font-size: 14px;&quot;&gt;&lt;b&gt;结果输出&lt;/b&gt;" style="html=1;dropTarget=0;fontSize=14;fillColor=#ffcccc;strokeColor=#36393d;gradientColor=#FFFFFF;gradientDirection=east;" vertex="1" parent="1">
          <mxGeometry x="2409" y="960" width="110" height="50" as="geometry" />
        </mxCell>
        <mxCell id="Ac0VnQFcxFspVbU45yQU-56" value="" style="shape=module;jettyWidth=8;jettyHeight=4;fontSize=14;fillColor=#ffcccc;strokeColor=#36393d;gradientColor=#FFFFFF;gradientDirection=east;" vertex="1" parent="Ac0VnQFcxFspVbU45yQU-55">
          <mxGeometry x="1" width="20" height="20" relative="1" as="geometry">
            <mxPoint x="-27" y="7" as="offset" />
          </mxGeometry>
        </mxCell>
        <mxCell id="Ac0VnQFcxFspVbU45yQU-57" value="业务逻辑层(Bussiness)" style="html=1;verticalAlign=top;fillColor=#ffe6cc;strokeColor=#d79b00;fontSize=16;fontStyle=1" vertex="1" parent="1">
          <mxGeometry x="2670" y="1020" width="630" height="270" as="geometry" />
        </mxCell>
        <mxCell id="Ac0VnQFcxFspVbU45yQU-58" value="领域设施层(Domain)" style="html=1;verticalAlign=top;fillColor=#fff2cc;strokeColor=#d6b656;fontSize=16;fontStyle=1" vertex="1" parent="1">
          <mxGeometry x="2670" y="1290" width="630" height="90" as="geometry" />
        </mxCell>
        <mxCell id="Ac0VnQFcxFspVbU45yQU-59" value="&lt;font style=&quot;font-size: 12px;&quot;&gt;«Module»&lt;br style=&quot;&quot;&gt;&lt;/font&gt;&lt;b&gt;仿真引擎&lt;/b&gt;" style="html=1;dropTarget=0;fontSize=14;fillColor=#E6D0DE;strokeColor=#36393d;gradientColor=#FFFFFF;gradientDirection=east;" vertex="1" parent="1">
          <mxGeometry x="3045" y="1317" width="110" height="50" as="geometry" />
        </mxCell>
        <mxCell id="Ac0VnQFcxFspVbU45yQU-60" value="" style="shape=module;jettyWidth=8;jettyHeight=4;fontSize=14;fillColor=#E6D0DE;strokeColor=#36393d;gradientColor=#FFFFFF;gradientDirection=east;" vertex="1" parent="Ac0VnQFcxFspVbU45yQU-59">
          <mxGeometry x="1" width="20" height="20" relative="1" as="geometry">
            <mxPoint x="-27" y="7" as="offset" />
          </mxGeometry>
        </mxCell>
        <mxCell id="Ac0VnQFcxFspVbU45yQU-61" value="中端" style="swimlane;fontSize=14;dashed=1;fillColor=#fad7ac;strokeColor=#b46504;" vertex="1" parent="1">
          <mxGeometry x="2850" y="1050" width="270" height="230" as="geometry" />
        </mxCell>
        <mxCell id="Ac0VnQFcxFspVbU45yQU-62" value="&lt;font style=&quot;font-size: 12px;&quot;&gt;«Service»&lt;/font&gt;&lt;br style=&quot;font-size: 14px;&quot;&gt;&lt;b&gt;网表分割&lt;/b&gt;" style="html=1;dropTarget=0;fontSize=14;fillColor=#FFCCFF;strokeColor=#36393d;gradientColor=#FFFFFF;gradientDirection=east;" vertex="1" parent="Ac0VnQFcxFspVbU45yQU-61">
          <mxGeometry x="140" y="40" width="110" height="50" as="geometry" />
        </mxCell>
        <mxCell id="Ac0VnQFcxFspVbU45yQU-63" value="" style="shape=module;jettyWidth=8;jettyHeight=4;fontSize=14;fillColor=#FFCCFF;strokeColor=#36393d;gradientColor=#FFFFFF;gradientDirection=east;" vertex="1" parent="Ac0VnQFcxFspVbU45yQU-62">
          <mxGeometry x="1" width="20" height="20" relative="1" as="geometry">
            <mxPoint x="-27" y="7" as="offset" />
          </mxGeometry>
        </mxCell>
        <mxCell id="Ac0VnQFcxFspVbU45yQU-64" value="&lt;font style=&quot;font-size: 12px;&quot;&gt;«Module»&lt;/font&gt;&lt;br style=&quot;font-size: 14px;&quot;&gt;&lt;b&gt;分区布局&lt;/b&gt;" style="html=1;dropTarget=0;fontSize=14;fillColor=#ffcccc;strokeColor=#36393d;gradientColor=#FFFFFF;gradientDirection=east;" vertex="1" parent="Ac0VnQFcxFspVbU45yQU-61">
          <mxGeometry x="10" y="100" width="110" height="50" as="geometry" />
        </mxCell>
        <mxCell id="Ac0VnQFcxFspVbU45yQU-65" value="" style="shape=module;jettyWidth=8;jettyHeight=4;fontSize=14;fillColor=#ffcccc;strokeColor=#36393d;gradientColor=#FFFFFF;gradientDirection=east;" vertex="1" parent="Ac0VnQFcxFspVbU45yQU-64">
          <mxGeometry x="1" width="20" height="20" relative="1" as="geometry">
            <mxPoint x="-27" y="7" as="offset" />
          </mxGeometry>
        </mxCell>
        <mxCell id="Ac0VnQFcxFspVbU45yQU-66" value="&lt;font style=&quot;font-size: 12px;&quot;&gt;«Module»&lt;/font&gt;&lt;br style=&quot;font-size: 14px;&quot;&gt;&lt;b&gt;调度&lt;/b&gt;" style="html=1;dropTarget=0;fontSize=14;fillColor=#ffcccc;strokeColor=#36393d;gradientColor=#FFFFFF;gradientDirection=east;" vertex="1" parent="Ac0VnQFcxFspVbU45yQU-61">
          <mxGeometry x="140" y="100" width="110" height="50" as="geometry" />
        </mxCell>
        <mxCell id="Ac0VnQFcxFspVbU45yQU-67" value="" style="shape=module;jettyWidth=8;jettyHeight=4;fontSize=14;fillColor=#ffcccc;strokeColor=#36393d;gradientColor=#FFFFFF;gradientDirection=east;" vertex="1" parent="Ac0VnQFcxFspVbU45yQU-66">
          <mxGeometry x="1" width="20" height="20" relative="1" as="geometry">
            <mxPoint x="-27" y="7" as="offset" />
          </mxGeometry>
        </mxCell>
        <mxCell id="Ac0VnQFcxFspVbU45yQU-68" value="&lt;font style=&quot;font-size: 12px;&quot;&gt;«Module»&lt;/font&gt;&lt;br style=&quot;font-size: 14px;&quot;&gt;&lt;b&gt;路由&lt;/b&gt;&lt;b&gt;布线&lt;/b&gt;" style="html=1;dropTarget=0;fontSize=14;fillColor=#ffcccc;strokeColor=#36393d;gradientColor=#FFFFFF;gradientDirection=east;" vertex="1" parent="Ac0VnQFcxFspVbU45yQU-61">
          <mxGeometry x="10" y="160" width="110" height="50" as="geometry" />
        </mxCell>
        <mxCell id="Ac0VnQFcxFspVbU45yQU-69" value="" style="shape=module;jettyWidth=8;jettyHeight=4;fontSize=14;fillColor=#ffcccc;strokeColor=#36393d;gradientColor=#FFFFFF;gradientDirection=east;" vertex="1" parent="Ac0VnQFcxFspVbU45yQU-68">
          <mxGeometry x="1" width="20" height="20" relative="1" as="geometry">
            <mxPoint x="-27" y="7" as="offset" />
          </mxGeometry>
        </mxCell>
        <mxCell id="Ac0VnQFcxFspVbU45yQU-70" value="&lt;font style=&quot;font-size: 12px;&quot;&gt;«Module»&lt;/font&gt;&lt;br style=&quot;font-size: 14px;&quot;&gt;&lt;b&gt;网表优化&lt;/b&gt;" style="html=1;dropTarget=0;fontSize=14;fillColor=#ffcccc;strokeColor=#36393d;gradientColor=#FFFFFF;gradientDirection=east;" vertex="1" parent="Ac0VnQFcxFspVbU45yQU-61">
          <mxGeometry x="10" y="40" width="110" height="50" as="geometry" />
        </mxCell>
        <mxCell id="Ac0VnQFcxFspVbU45yQU-71" value="" style="shape=module;jettyWidth=8;jettyHeight=4;fontSize=14;fillColor=#ffcccc;strokeColor=#36393d;gradientColor=#FFFFFF;gradientDirection=east;" vertex="1" parent="Ac0VnQFcxFspVbU45yQU-70">
          <mxGeometry x="1" width="20" height="20" relative="1" as="geometry">
            <mxPoint x="-27" y="7" as="offset" />
          </mxGeometry>
        </mxCell>
        <mxCell id="Ac0VnQFcxFspVbU45yQU-72" value="后端" style="swimlane;fontSize=14;dashed=1;fillColor=#fad7ac;strokeColor=#b46504;" vertex="1" parent="1">
          <mxGeometry x="3140" y="1050" width="140" height="230" as="geometry" />
        </mxCell>
        <mxCell id="Ac0VnQFcxFspVbU45yQU-73" value="&lt;font style=&quot;font-size: 12px;&quot;&gt;«Module»&lt;/font&gt;&lt;br style=&quot;font-size: 14px;&quot;&gt;&lt;b&gt;指令生成&lt;/b&gt;" style="html=1;dropTarget=0;fontSize=14;fillColor=#ffcccc;strokeColor=#36393d;gradientColor=#FFFFFF;gradientDirection=east;" vertex="1" parent="Ac0VnQFcxFspVbU45yQU-72">
          <mxGeometry x="15" y="40" width="110" height="50" as="geometry" />
        </mxCell>
        <mxCell id="Ac0VnQFcxFspVbU45yQU-74" value="" style="shape=module;jettyWidth=8;jettyHeight=4;fontSize=14;fillColor=#ffcccc;strokeColor=#36393d;gradientColor=#FFFFFF;gradientDirection=east;" vertex="1" parent="Ac0VnQFcxFspVbU45yQU-73">
          <mxGeometry x="1" width="20" height="20" relative="1" as="geometry">
            <mxPoint x="-27" y="7" as="offset" />
          </mxGeometry>
        </mxCell>
        <mxCell id="Ac0VnQFcxFspVbU45yQU-75" value="&lt;font style=&quot;font-size: 12px;&quot;&gt;«Module»&lt;/font&gt;&lt;br style=&quot;font-size: 14px;&quot;&gt;&lt;b&gt;信号导出&lt;/b&gt;" style="html=1;dropTarget=0;fontSize=14;fillColor=#ffcccc;strokeColor=#36393d;gradientColor=#FFFFFF;gradientDirection=east;" vertex="1" parent="Ac0VnQFcxFspVbU45yQU-72">
          <mxGeometry x="15" y="98.5" width="110" height="50" as="geometry" />
        </mxCell>
        <mxCell id="Ac0VnQFcxFspVbU45yQU-76" value="" style="shape=module;jettyWidth=8;jettyHeight=4;fontSize=14;fillColor=#ffcccc;strokeColor=#36393d;gradientColor=#FFFFFF;gradientDirection=east;" vertex="1" parent="Ac0VnQFcxFspVbU45yQU-75">
          <mxGeometry x="1" width="20" height="20" relative="1" as="geometry">
            <mxPoint x="-27" y="7" as="offset" />
          </mxGeometry>
        </mxCell>
        <mxCell id="Ac0VnQFcxFspVbU45yQU-77" value="&lt;font style=&quot;font-size: 12px;&quot;&gt;«Module»&lt;/font&gt;&lt;br style=&quot;font-size: 14px;&quot;&gt;&lt;b&gt;顶层互连&lt;/b&gt;" style="html=1;dropTarget=0;fontSize=14;fillColor=#ffcccc;strokeColor=#36393d;gradientColor=#FFFFFF;gradientDirection=east;" vertex="1" parent="Ac0VnQFcxFspVbU45yQU-72">
          <mxGeometry x="15" y="160" width="110" height="50" as="geometry" />
        </mxCell>
        <mxCell id="Ac0VnQFcxFspVbU45yQU-78" value="" style="shape=module;jettyWidth=8;jettyHeight=4;fontSize=14;fillColor=#ffcccc;strokeColor=#36393d;gradientColor=#FFFFFF;gradientDirection=east;" vertex="1" parent="Ac0VnQFcxFspVbU45yQU-77">
          <mxGeometry x="1" width="20" height="20" relative="1" as="geometry">
            <mxPoint x="-27" y="7" as="offset" />
          </mxGeometry>
        </mxCell>
        <mxCell id="Ac0VnQFcxFspVbU45yQU-79" value="前端" style="swimlane;fontSize=14;dashed=1;fillColor=#fad7ac;strokeColor=#b46504;" vertex="1" parent="1">
          <mxGeometry x="2690" y="1050" width="140" height="230" as="geometry" />
        </mxCell>
        <mxCell id="Ac0VnQFcxFspVbU45yQU-80" value="&lt;font style=&quot;font-size: 12px;&quot;&gt;«Service»&lt;/font&gt;&lt;br style=&quot;font-size: 14px;&quot;&gt;&lt;b&gt;逻辑综合&lt;/b&gt;" style="html=1;dropTarget=0;fontSize=14;fillColor=#FFCCFF;strokeColor=#36393d;gradientColor=#FFFFFF;gradientDirection=east;" vertex="1" parent="Ac0VnQFcxFspVbU45yQU-79">
          <mxGeometry x="17.5" y="100" width="110" height="50" as="geometry" />
        </mxCell>
        <mxCell id="Ac0VnQFcxFspVbU45yQU-81" value="" style="shape=module;jettyWidth=8;jettyHeight=4;fontSize=14;fillColor=#FFCCFF;strokeColor=#36393d;gradientColor=#FFFFFF;gradientDirection=east;" vertex="1" parent="Ac0VnQFcxFspVbU45yQU-80">
          <mxGeometry x="1" width="20" height="20" relative="1" as="geometry">
            <mxPoint x="-27" y="7" as="offset" />
          </mxGeometry>
        </mxCell>
        <mxCell id="Ac0VnQFcxFspVbU45yQU-82" value="&lt;font style=&quot;font-size: 12px;&quot;&gt;«Module»&lt;/font&gt;&lt;br style=&quot;font-size: 14px;&quot;&gt;&lt;b&gt;网表解析&lt;/b&gt;" style="html=1;dropTarget=0;fontSize=14;fillColor=#ffcccc;strokeColor=#36393d;gradientColor=#FFFFFF;gradientDirection=east;" vertex="1" parent="Ac0VnQFcxFspVbU45yQU-79">
          <mxGeometry x="17.5" y="160" width="110" height="50" as="geometry" />
        </mxCell>
        <mxCell id="Ac0VnQFcxFspVbU45yQU-83" value="" style="shape=module;jettyWidth=8;jettyHeight=4;fontSize=14;fillColor=#ffcccc;strokeColor=#36393d;gradientColor=#FFFFFF;gradientDirection=east;" vertex="1" parent="Ac0VnQFcxFspVbU45yQU-82">
          <mxGeometry x="1" width="20" height="20" relative="1" as="geometry">
            <mxPoint x="-27" y="7" as="offset" />
          </mxGeometry>
        </mxCell>
        <mxCell id="Ac0VnQFcxFspVbU45yQU-84" value="&lt;font style=&quot;font-size: 12px;&quot;&gt;«Module»&lt;/font&gt;&lt;br style=&quot;font-size: 14px;&quot;&gt;&lt;b&gt;配置解析&lt;/b&gt;" style="html=1;dropTarget=0;fontSize=14;fillColor=#ffcccc;strokeColor=#36393d;gradientColor=#FFFFFF;gradientDirection=east;" vertex="1" parent="Ac0VnQFcxFspVbU45yQU-79">
          <mxGeometry x="17.5" y="40" width="110" height="50" as="geometry" />
        </mxCell>
        <mxCell id="Ac0VnQFcxFspVbU45yQU-85" value="" style="shape=module;jettyWidth=8;jettyHeight=4;fontSize=14;fillColor=#ffcccc;strokeColor=#36393d;gradientColor=#FFFFFF;gradientDirection=east;" vertex="1" parent="Ac0VnQFcxFspVbU45yQU-84">
          <mxGeometry x="1" width="20" height="20" relative="1" as="geometry">
            <mxPoint x="-27" y="7" as="offset" />
          </mxGeometry>
        </mxCell>
        <mxCell id="Ac0VnQFcxFspVbU45yQU-86" value="&lt;font style=&quot;font-size: 12px;&quot;&gt;«Module»&lt;/font&gt;&lt;br style=&quot;font-size: 14px;&quot;&gt;&lt;b style=&quot;font-size: 14px;&quot;&gt;网表超图&lt;/b&gt;" style="html=1;dropTarget=0;fontSize=14;fillColor=#E6D0DE;strokeColor=#36393d;gradientColor=#FFFFFF;gradientDirection=east;" vertex="1" parent="1">
          <mxGeometry x="2775" y="1317" width="110" height="50" as="geometry" />
        </mxCell>
        <mxCell id="Ac0VnQFcxFspVbU45yQU-87" value="" style="shape=module;jettyWidth=8;jettyHeight=4;fontSize=14;fillColor=#E6D0DE;strokeColor=#36393d;gradientColor=#FFFFFF;gradientDirection=east;" vertex="1" parent="Ac0VnQFcxFspVbU45yQU-86">
          <mxGeometry x="1" width="20" height="20" relative="1" as="geometry">
            <mxPoint x="-27" y="7" as="offset" />
          </mxGeometry>
        </mxCell>
        <mxCell id="Ac0VnQFcxFspVbU45yQU-88" value="通用支撑层(Support)" style="html=1;verticalAlign=top;fillColor=#d5e8d4;strokeColor=#82b366;fontSize=16;fontStyle=1" vertex="1" parent="1">
          <mxGeometry x="2670" y="1380" width="630" height="90" as="geometry" />
        </mxCell>
        <mxCell id="Ac0VnQFcxFspVbU45yQU-89" value="&lt;font style=&quot;font-size: 12px;&quot;&gt;«FuncUnit»&lt;/font&gt;&lt;br style=&quot;font-size: 14px;&quot;&gt;&lt;b style=&quot;font-size: 14px;&quot;&gt;调试打印&lt;/b&gt;" style="html=1;dropTarget=0;fontSize=14;fillColor=#E6D0DE;strokeColor=#36393d;gradientColor=#FFFFFF;gradientDirection=east;" vertex="1" parent="1">
          <mxGeometry x="2680" y="1410" width="110" height="50" as="geometry" />
        </mxCell>
        <mxCell id="Ac0VnQFcxFspVbU45yQU-90" value="" style="shape=module;jettyWidth=8;jettyHeight=4;fontSize=14;fillColor=#E6D0DE;strokeColor=#36393d;gradientColor=#FFFFFF;gradientDirection=east;" vertex="1" parent="Ac0VnQFcxFspVbU45yQU-89">
          <mxGeometry x="1" width="20" height="20" relative="1" as="geometry">
            <mxPoint x="-27" y="7" as="offset" />
          </mxGeometry>
        </mxCell>
        <mxCell id="Ac0VnQFcxFspVbU45yQU-91" value="&lt;font style=&quot;font-size: 12px;&quot;&gt;«Module»&lt;/font&gt;&lt;br style=&quot;font-size: 14px;&quot;&gt;&lt;b&gt;Digraph&lt;/b&gt;" style="html=1;dropTarget=0;fontSize=14;fillColor=#E6D0DE;strokeColor=#36393d;gradientColor=#FFFFFF;gradientDirection=east;" vertex="1" parent="1">
          <mxGeometry x="2800" y="1410" width="110" height="50" as="geometry" />
        </mxCell>
        <mxCell id="Ac0VnQFcxFspVbU45yQU-92" value="" style="shape=module;jettyWidth=8;jettyHeight=4;fontSize=14;fillColor=#E6D0DE;strokeColor=#36393d;gradientColor=#FFFFFF;gradientDirection=east;" vertex="1" parent="Ac0VnQFcxFspVbU45yQU-91">
          <mxGeometry x="1" width="20" height="20" relative="1" as="geometry">
            <mxPoint x="-27" y="7" as="offset" />
          </mxGeometry>
        </mxCell>
        <mxCell id="Ac0VnQFcxFspVbU45yQU-93" value="&lt;font style=&quot;font-size: 12px;&quot;&gt;«Module»&lt;/font&gt;&lt;br style=&quot;font-size: 14px;&quot;&gt;&lt;b&gt;线程池&lt;/b&gt;" style="html=1;dropTarget=0;fontSize=14;fillColor=#E6D0DE;strokeColor=#36393d;gradientColor=#FFFFFF;gradientDirection=east;" vertex="1" parent="1">
          <mxGeometry x="2920" y="1410" width="110" height="50" as="geometry" />
        </mxCell>
        <mxCell id="Ac0VnQFcxFspVbU45yQU-94" value="" style="shape=module;jettyWidth=8;jettyHeight=4;fontSize=14;fillColor=#E6D0DE;strokeColor=#36393d;gradientColor=#FFFFFF;gradientDirection=east;" vertex="1" parent="Ac0VnQFcxFspVbU45yQU-93">
          <mxGeometry x="1" width="20" height="20" relative="1" as="geometry">
            <mxPoint x="-27" y="7" as="offset" />
          </mxGeometry>
        </mxCell>
        <mxCell id="Ac0VnQFcxFspVbU45yQU-95" value="&lt;font style=&quot;font-size: 12px;&quot;&gt;«FuncUnit»&lt;/font&gt;&lt;br style=&quot;font-size: 14px;&quot;&gt;&lt;b&gt;耗时统计&lt;/b&gt;" style="html=1;dropTarget=0;fontSize=14;fillColor=#E6D0DE;strokeColor=#36393d;gradientColor=#FFFFFF;gradientDirection=east;" vertex="1" parent="1">
          <mxGeometry x="3040" y="1410" width="110" height="50" as="geometry" />
        </mxCell>
        <mxCell id="Ac0VnQFcxFspVbU45yQU-96" value="" style="shape=module;jettyWidth=8;jettyHeight=4;fontSize=14;fillColor=#E6D0DE;strokeColor=#36393d;gradientColor=#FFFFFF;gradientDirection=east;" vertex="1" parent="Ac0VnQFcxFspVbU45yQU-95">
          <mxGeometry x="1" width="20" height="20" relative="1" as="geometry">
            <mxPoint x="-27" y="7" as="offset" />
          </mxGeometry>
        </mxCell>
        <mxCell id="Ac0VnQFcxFspVbU45yQU-97" value="&lt;font style=&quot;font-size: 12px;&quot;&gt;«FuncUnit»&lt;/font&gt;&lt;br style=&quot;font-size: 14px;&quot;&gt;&lt;b&gt;真值表&lt;/b&gt;" style="html=1;dropTarget=0;fontSize=14;fillColor=#E6D0DE;strokeColor=#36393d;gradientColor=#FFFFFF;gradientDirection=east;" vertex="1" parent="1">
          <mxGeometry x="3160" y="1410" width="110" height="50" as="geometry" />
        </mxCell>
        <mxCell id="Ac0VnQFcxFspVbU45yQU-98" value="" style="shape=module;jettyWidth=8;jettyHeight=4;fontSize=14;fillColor=#E6D0DE;strokeColor=#36393d;gradientColor=#FFFFFF;gradientDirection=east;" vertex="1" parent="Ac0VnQFcxFspVbU45yQU-97">
          <mxGeometry x="1" width="20" height="20" relative="1" as="geometry">
            <mxPoint x="-27" y="7" as="offset" />
          </mxGeometry>
        </mxCell>
        <mxCell id="Ac0VnQFcxFspVbU45yQU-99" value="&lt;font style=&quot;font-size: 12px;&quot;&gt;«Component»&lt;/font&gt;&lt;br style=&quot;font-size: 14px;&quot;&gt;&lt;b&gt;nlohmann/json&lt;/b&gt;" style="html=1;dropTarget=0;fontSize=14;fillColor=#CCCCCC;strokeColor=#36393d;gradientColor=#FFFFFF;gradientDirection=east;" vertex="1" parent="1">
          <mxGeometry x="2170" y="1500" width="110" height="50" as="geometry" />
        </mxCell>
        <mxCell id="Ac0VnQFcxFspVbU45yQU-100" value="" style="shape=module;jettyWidth=8;jettyHeight=4;fontSize=14;fillColor=#CCCCCC;strokeColor=#36393d;gradientColor=#FFFFFF;gradientDirection=east;" vertex="1" parent="Ac0VnQFcxFspVbU45yQU-99">
          <mxGeometry x="1" width="20" height="20" relative="1" as="geometry">
            <mxPoint x="-27" y="7" as="offset" />
          </mxGeometry>
        </mxCell>
        <mxCell id="Ac0VnQFcxFspVbU45yQU-101" value="第三方工具(Third)" style="html=1;verticalAlign=top;fillColor=#f5f5f5;strokeColor=#666666;fontSize=16;fontStyle=1;fontColor=#333333;" vertex="1" parent="1">
          <mxGeometry x="2670" y="1470" width="630" height="90" as="geometry" />
        </mxCell>
        <mxCell id="Ac0VnQFcxFspVbU45yQU-102" value="&lt;font style=&quot;font-size: 12px;&quot;&gt;«Component»&lt;/font&gt;&lt;br style=&quot;font-size: 14px;&quot;&gt;&lt;b&gt;Fstapi&lt;/b&gt;" style="html=1;dropTarget=0;fontSize=14;fillColor=#CCCCCC;strokeColor=#36393d;gradientColor=#FFFFFF;gradientDirection=east;" vertex="1" parent="1">
          <mxGeometry x="3160" y="1500" width="110" height="50" as="geometry" />
        </mxCell>
        <mxCell id="Ac0VnQFcxFspVbU45yQU-103" value="" style="shape=module;jettyWidth=8;jettyHeight=4;fontSize=14;fillColor=#CCCCCC;strokeColor=#36393d;gradientColor=#FFFFFF;gradientDirection=east;" vertex="1" parent="Ac0VnQFcxFspVbU45yQU-102">
          <mxGeometry x="1" width="20" height="20" relative="1" as="geometry">
            <mxPoint x="-27" y="7" as="offset" />
          </mxGeometry>
        </mxCell>
        <mxCell id="Ac0VnQFcxFspVbU45yQU-104" value="&lt;font style=&quot;font-size: 12px;&quot;&gt;«Component»&lt;/font&gt;&lt;br style=&quot;font-size: 14px;&quot;&gt;&lt;b&gt;TinyXml2&lt;/b&gt;" style="html=1;dropTarget=0;fontSize=14;fillColor=#CCCCCC;strokeColor=#36393d;gradientColor=#FFFFFF;gradientDirection=east;" vertex="1" parent="1">
          <mxGeometry x="3040" y="1500" width="110" height="50" as="geometry" />
        </mxCell>
        <mxCell id="Ac0VnQFcxFspVbU45yQU-105" value="" style="shape=module;jettyWidth=8;jettyHeight=4;fontSize=14;fillColor=#CCCCCC;strokeColor=#36393d;gradientColor=#FFFFFF;gradientDirection=east;" vertex="1" parent="Ac0VnQFcxFspVbU45yQU-104">
          <mxGeometry x="1" width="20" height="20" relative="1" as="geometry">
            <mxPoint x="-27" y="7" as="offset" />
          </mxGeometry>
        </mxCell>
        <mxCell id="Ac0VnQFcxFspVbU45yQU-106" value="&lt;font style=&quot;font-size: 12px;&quot;&gt;«Component»&lt;/font&gt;&lt;br style=&quot;font-size: 14px;&quot;&gt;&lt;b&gt;Kahypar&lt;/b&gt;" style="html=1;dropTarget=0;fontSize=14;fillColor=#CCCCCC;strokeColor=#36393d;gradientColor=#FFFFFF;gradientDirection=east;" vertex="1" parent="1">
          <mxGeometry x="2800" y="1500" width="110" height="50" as="geometry" />
        </mxCell>
        <mxCell id="Ac0VnQFcxFspVbU45yQU-107" value="" style="shape=module;jettyWidth=8;jettyHeight=4;fontSize=14;fillColor=#CCCCCC;strokeColor=#36393d;gradientColor=#FFFFFF;gradientDirection=east;" vertex="1" parent="Ac0VnQFcxFspVbU45yQU-106">
          <mxGeometry x="1" width="20" height="20" relative="1" as="geometry">
            <mxPoint x="-27" y="7" as="offset" />
          </mxGeometry>
        </mxCell>
        <mxCell id="Ac0VnQFcxFspVbU45yQU-108" value="&lt;font style=&quot;font-size: 12px;&quot;&gt;«Component»&lt;/font&gt;&lt;br style=&quot;font-size: 14px;&quot;&gt;&lt;b&gt;Yosys&lt;/b&gt;" style="html=1;dropTarget=0;fontSize=14;fillColor=#CCCCCC;strokeColor=#36393d;gradientColor=#FFFFFF;gradientDirection=east;" vertex="1" parent="1">
          <mxGeometry x="2680" y="1500" width="110" height="50" as="geometry" />
        </mxCell>
        <mxCell id="Ac0VnQFcxFspVbU45yQU-109" value="" style="shape=module;jettyWidth=8;jettyHeight=4;fontSize=14;fillColor=#CCCCCC;strokeColor=#36393d;gradientColor=#FFFFFF;gradientDirection=east;" vertex="1" parent="Ac0VnQFcxFspVbU45yQU-108">
          <mxGeometry x="1" width="20" height="20" relative="1" as="geometry">
            <mxPoint x="-27" y="7" as="offset" />
          </mxGeometry>
        </mxCell>
        <mxCell id="Ac0VnQFcxFspVbU45yQU-110" value="&lt;font style=&quot;font-size: 12px;&quot;&gt;«Component»&lt;/font&gt;&lt;br style=&quot;font-size: 14px;&quot;&gt;&lt;b&gt;nlohmann/json&lt;/b&gt;" style="html=1;dropTarget=0;fontSize=14;fillColor=#CCCCCC;strokeColor=#36393d;gradientColor=#FFFFFF;gradientDirection=east;" vertex="1" parent="1">
          <mxGeometry x="2920" y="1500" width="110" height="50" as="geometry" />
        </mxCell>
        <mxCell id="Ac0VnQFcxFspVbU45yQU-111" value="" style="shape=module;jettyWidth=8;jettyHeight=4;fontSize=14;fillColor=#CCCCCC;strokeColor=#36393d;gradientColor=#FFFFFF;gradientDirection=east;" vertex="1" parent="Ac0VnQFcxFspVbU45yQU-110">
          <mxGeometry x="1" width="20" height="20" relative="1" as="geometry">
            <mxPoint x="-27" y="7" as="offset" />
          </mxGeometry>
        </mxCell>
      </root>
    </mxGraphModel>
  </diagram>
</mxfile>
